<?xml version="1.0" encoding="utf-8"?>
<!-- Svg Vector Icons : http://www.onlinewebfonts.com/icon -->
<!DOCTYPE svg PUBLIC "-//W3C//DTD SVG 1.1//EN" "http://www.w3.org/Graphics/SVG/1.1/DTD/svg11.dtd">
<svg version="1.1" xmlns="http://www.w3.org/2000/svg" xmlns:xlink="http://www.w3.org/1999/xlink" x="0px" y="0px" viewBox="0 0 1000 1000" enable-background="new 0 0 1000 1000" xml:space="preserve">
<metadata> Svg Vector Icons : http://www.onlinewebfonts.com/icon </metadata>
<g><path d="M348.4,10c-0.9,17.1-8,32.4-12.7,49.2C331.1,75.5,327,93,323,110.1c-10.3,44.6-19.9,88.4-19.1,146.1c35.2,6.8,79.5,1.7,111.2-4.8c17.3,11.3,28.5,28.7,44.5,41.3c-3-21.6,11.4-25.6,23.8-31.8c-5.5,9.3-14,15.6-11.1,33.4c7.2,4.8,8.4-8,14.3-9.5c8.2,9.3,18.5,8.8,27,0c6.1,1.3,4.4,10.4,11.1,11.1c9.4-12.3-4-25.7-8-34.9c11.8,6.2,25.2,10.8,23.8,30.2c12.8-7.8,28.5-26.6,41.3-39.7c33.1,7,75.4,10.2,114.4,6.4c-1.3-96.6-24.8-171.1-47.6-246.2c6.3-0.8,6.3,7.6,7.9,11.1c23.6,51.1,44.7,109.5,61.9,171.5c2.5,9,6.7,21.3,9.5,33.4c2.4,10.6,7.6,29,6.4,34.9c-2.7,13-24.2,17.4-28.6,28.6c-13.2-15.6-51.3-11.1-87.4-12.7c-10.2-0.4-23.9-3.4-30.2-1.6c-13.8,4-19.9,24.2-27,34.9c19.6,1.3,35-17.6,52.4-19.1c11-0.9,27.2,7.4,41.3,11.1c41,10.9,86.6,20,123.9,31.8c2.2-127.7-30.6-234.2-74.7-320.8C748,75.2,777.5,146,799.5,229.2c3.8,14.4,7.1,28.1,9.5,42.9c3.5,20.8,3.6,46.5,14.3,61.9c-13.2,14.4-29,26-42.9,39.7c-39-23.3-114.4-56.9-177.9-50.8c-15.2,1.4-28.6,9-39.7,19.1c19.4,7.8,32.8,8.5,58.8,7.9c6.5-0.1,15.8-2.8,20.6-1.6c5.5,1.4,14.4,12.8,22.2,20.6c45.9,45.9,86.9,79.5,141.4,115.9c17,11.4,26.6,23,46.1,7.9c3.2,150.7-36.8,262-85.8,363.7c-5.7,11.9-9.3,25.6-19.1,34.9c36.8-86.9,65.1-190.2,65.1-311.3c0-12.7,2.4-28.5,0-39.7c-3.5-15.9-28.4-32.7-42.9-46.1c-41-37.9-73.7-64.5-119.1-100.1c-8.9-7-16.5-16.4-23.8-19.1c-7.7-2.8-19.9-3.4-28.6-4.8c-10.8-1.7-21.2-2.2-30.2-3.2c17.6,18.9,45.4,42.3,69.9,60.4c4.5,4,9.1-1.4,14.3-1.6c5.8,177.1-7.3,350.5-57.2,479.7c-11.9,30.9-25.1,61.1-46.1,84.2c67.7-122.3,72.8-332.2,58.8-516.2c14.4-12.5,8.1-22.8-4.8-38.1c-14.1-16.7-39.2-41.1-55.6-49.2c-1.2,8.3,1.7,16.4,4.8,23.8c3.1,7.5,10,13.9,11.1,20.6c2.4,14.2-3.4,45.4-6.4,61.9c-9.8,54.8-30.5,115-49.2,155.7c-6.6-0.8-2-12.9-6.4-15.9c-7.1,0.4-2.8,12-6.4,15.9c-21.9-37.3-40.5-99.1-50.8-155.7c-3.7-20.2-9.4-44.6-6.4-61.9c2.4-13.8,17.3-26.3,15.9-42.9c-14.5,3.3-28.1,17.8-39.7,30.2c-11.6,12.3-23.6,25.6-31.8,39.7c1,7,7.7,8.1,9.5,14.3c-10.4,186.2-10.1,395.7,60.4,516.2c-7.4-1-10.9-10.4-14.3-15.9c-65.6-104.9-83.2-266.6-90.5-433.6c-1.6-36.9-3.3-73,1.6-109.6c1.3-7.7,9.5,3.7,14.3-1.6c25.1-18.9,47.6-40.2,71.5-60.4c-20.7,3.2-43.3,2.2-61.9,9.5c-16.2,6.4-33.9,24-49.2,36.5c-46.6,38-95.7,79.2-135,122.3c-8,141.7,24.5,255.9,63.5,355.8c-56.4-109.9-108.7-232.2-103.2-398.7c21.5,20.4,54.2-12.8,71.5-25.4c48.1-35.2,99.4-80.6,136.6-119.1c26.9,4,58.5,0.8,81-4.8c-28.1-35.8-100-17.8-143-4.8c-28.8,8.8-55.7,21.4-73.1,34.9c-16.5-11-29.1-26-44.5-38.1c11.2-28.3,13.6-75.7,22.2-108c21-78.9,53.7-148.7,93.7-212.8c-1.1,12.2-9.5,22.7-14.3,33.4c-34.8,77.4-57.7,173.4-58.8,285.9c36.7-8.3,80.5-18.6,123.9-30.2c14.1-3.8,28.8-11.5,39.7-11.1c17.7,0.6,34.3,18.9,54,19.1c-4.7-14.9-13.7-25.5-23.8-34.9c-32.7,3.7-69.3-2.1-98.5,3.2c-3,0.5-6.9,2.3-11.1,4.8c0.4-0.2-9.4,6.3-7.9,6.4c-6.6-0.1-22.7-23-30.2-25.4C281.1,168.2,315.5,89.9,348.4,10z"/></g>
</svg>